# WaveFront *.obj file (generated by CINEMA 4D)

mtllib ./circle.mtl

v 0.00000000000000 0.00000000000000 0.00000000000000
v 100.00000000000000 0.00000000000000 0.00000000000000
v 75.00000000000000 0.00000000000000 0.00000000000000
v 50.00000000000000 0.00000000000000 0.00000000000000
v 25.00000000000000 0.00000000000000 0.00000000000000
v 98.48077530122080 0.00000000000000 17.36481776669303
v 73.86058147591560 0.00000000000000 13.02361332501978
v 49.24038765061040 0.00000000000000 8.68240888334652
v 24.62019382530520 0.00000000000000 4.34120444167326
v 93.96926207859085 0.00000000000000 34.20201433256687
v 70.47694655894313 0.00000000000000 25.65151074942515
v 46.98463103929542 0.00000000000000 17.10100716628343
v 23.49231551964771 0.00000000000000 8.55050358314172
v 86.60254037844388 0.00000000000000 49.99999999999999
v 64.95190528383290 0.00000000000000 37.49999999999999
v 43.30127018922194 0.00000000000000 25.00000000000000
v 21.65063509461097 0.00000000000000 12.50000000000000
v 76.60444431189781 0.00000000000000 64.27876096865393
v 57.45333323392335 0.00000000000000 48.20907072649045
v 38.30222215594890 0.00000000000000 32.13938048432696
v 19.15111107797445 0.00000000000000 16.06969024216348
v 64.27876096865394 0.00000000000000 76.60444431189781
v 48.20907072649045 0.00000000000000 57.45333323392335
v 32.13938048432697 0.00000000000000 38.30222215594890
v 16.06969024216349 0.00000000000000 19.15111107797445
v 50.00000000000001 0.00000000000000 86.60254037844386
v 37.50000000000001 0.00000000000000 64.95190528383290
v 25.00000000000001 0.00000000000000 43.30127018922193
v 12.50000000000000 0.00000000000000 21.65063509461097
v 34.20201433256688 0.00000000000000 93.96926207859083
v 25.65151074942516 0.00000000000000 70.47694655894313
v 17.10100716628344 0.00000000000000 46.98463103929542
v 8.55050358314172 0.00000000000000 23.49231551964771
v 17.36481776669304 0.00000000000000 98.48077530122080
v 13.02361332501978 0.00000000000000 73.86058147591560
v 8.68240888334652 0.00000000000000 49.24038765061040
v 4.34120444167326 0.00000000000000 24.62019382530520
v 0.00000000000001 0.00000000000000 100.00000000000000
v 0.00000000000000 0.00000000000000 75.00000000000000
v 0.00000000000000 0.00000000000000 50.00000000000000
v 0.00000000000000 0.00000000000000 25.00000000000000
v -17.36481776669303 0.00000000000000 98.48077530122080
v -13.02361332501977 0.00000000000000 73.86058147591560
v -8.68240888334651 0.00000000000000 49.24038765061040
v -4.34120444167326 0.00000000000000 24.62019382530520
v -34.20201433256685 0.00000000000000 93.96926207859085
v -25.65151074942514 0.00000000000000 70.47694655894313
v -17.10100716628342 0.00000000000000 46.98463103929542
v -8.55050358314171 0.00000000000000 23.49231551964771
v -49.99999999999998 0.00000000000000 86.60254037844388
v -37.49999999999999 0.00000000000000 64.95190528383290
v -24.99999999999999 0.00000000000000 43.30127018922194
v -12.50000000000000 0.00000000000000 21.65063509461097
v -64.27876096865394 0.00000000000000 76.60444431189781
v -48.20907072649045 0.00000000000000 57.45333323392335
v -32.13938048432697 0.00000000000000 38.30222215594890
v -16.06969024216349 0.00000000000000 19.15111107797445
v -76.60444431189779 0.00000000000000 64.27876096865394
v -57.45333323392335 0.00000000000000 48.20907072649046
v -38.30222215594890 0.00000000000000 32.13938048432697
v -19.15111107797445 0.00000000000000 16.06969024216349
v -86.60254037844385 0.00000000000000 50.00000000000004
v -64.95190528383289 0.00000000000000 37.50000000000003
v -43.30127018922192 0.00000000000000 25.00000000000002
v -21.65063509461096 0.00000000000000 12.50000000000001
v -93.96926207859083 0.00000000000000 34.20201433256689
v -70.47694655894313 0.00000000000000 25.65151074942517
v -46.98463103929542 0.00000000000000 17.10100716628345
v -23.49231551964771 0.00000000000000 8.55050358314172
v -98.48077530122080 0.00000000000000 17.36481776669303
v -73.86058147591560 0.00000000000000 13.02361332501977
v -49.24038765061040 0.00000000000000 8.68240888334651
v -24.62019382530520 0.00000000000000 4.34120444167326
v -100.00000000000000 0.00000000000000 0.00000000000001
v -75.00000000000000 0.00000000000000 0.00000000000001
v -50.00000000000000 0.00000000000000 0.00000000000001
v -25.00000000000000 0.00000000000000 0.00000000000000
v -98.48077530122082 0.00000000000000 -17.36481776669300
v -73.86058147591561 0.00000000000000 -13.02361332501975
v -49.24038765061041 0.00000000000000 -8.68240888334650
v -24.62019382530520 0.00000000000000 -4.34120444167325
v -93.96926207859085 0.00000000000000 -34.20201433256687
v -70.47694655894313 0.00000000000000 -25.65151074942515
v -46.98463103929542 0.00000000000000 -17.10100716628343
v -23.49231551964771 0.00000000000000 -8.55050358314172
v -86.60254037844386 0.00000000000000 -50.00000000000001
v -64.95190528383290 0.00000000000000 -37.50000000000001
v -43.30127018922193 0.00000000000000 -25.00000000000001
v -21.65063509461097 0.00000000000000 -12.50000000000000
v -76.60444431189784 0.00000000000000 -64.27876096865390
v -57.45333323392337 0.00000000000000 -48.20907072649042
v -38.30222215594892 0.00000000000000 -32.13938048432695
v -19.15111107797446 0.00000000000000 -16.06969024216348
v -64.27876096865394 0.00000000000000 -76.60444431189779
v -48.20907072649046 0.00000000000000 -57.45333323392335
v -32.13938048432697 0.00000000000000 -38.30222215594890
v -16.06969024216349 0.00000000000000 -19.15111107797445
v -50.00000000000004 0.00000000000000 -86.60254037844383
v -37.50000000000004 0.00000000000000 -64.95190528383287
v -25.00000000000002 0.00000000000000 -43.30127018922192
v -12.50000000000001 0.00000000000000 -21.65063509461096
v -34.20201433256685 0.00000000000000 -93.96926207859085
v -25.65151074942514 0.00000000000000 -70.47694655894313
v -17.10100716628343 0.00000000000000 -46.98463103929542
v -8.55050358314171 0.00000000000000 -23.49231551964771
v -17.36481776669303 0.00000000000000 -98.48077530122080
v -13.02361332501978 0.00000000000000 -73.86058147591560
v -8.68240888334652 0.00000000000000 -49.24038765061040
v -4.34120444167326 0.00000000000000 -24.62019382530520
v -0.00000000000002 0.00000000000000 -100.00000000000000
v -0.00000000000001 0.00000000000000 -75.00000000000000
v -0.00000000000001 0.00000000000000 -50.00000000000000
v -0.00000000000000 0.00000000000000 -25.00000000000000
v 17.36481776669300 0.00000000000000 -98.48077530122082
v 13.02361332501975 0.00000000000000 -73.86058147591561
v 8.68240888334650 0.00000000000000 -49.24038765061041
v 4.34120444167325 0.00000000000000 -24.62019382530520
v 34.20201433256690 0.00000000000000 -93.96926207859083
v 25.65151074942517 0.00000000000000 -70.47694655894313
v 17.10100716628345 0.00000000000000 -46.98463103929542
v 8.55050358314172 0.00000000000000 -23.49231551964771
v 49.99999999999994 0.00000000000000 -86.60254037844391
v 37.49999999999995 0.00000000000000 -64.95190528383293
v 24.99999999999997 0.00000000000000 -43.30127018922195
v 12.49999999999998 0.00000000000000 -21.65063509461098
v 64.27876096865393 0.00000000000000 -76.60444431189781
v 48.20907072649045 0.00000000000000 -57.45333323392336
v 32.13938048432696 0.00000000000000 -38.30222215594890
v 16.06969024216348 0.00000000000000 -19.15111107797445
v 76.60444431189778 0.00000000000000 -64.27876096865396
v 57.45333323392333 0.00000000000000 -48.20907072649047
v 38.30222215594889 0.00000000000000 -32.13938048432698
v 19.15111107797445 0.00000000000000 -16.06969024216349
v 86.60254037844388 0.00000000000000 -49.99999999999996
v 64.95190528383292 0.00000000000000 -37.49999999999997
v 43.30127018922194 0.00000000000000 -24.99999999999998
v 21.65063509461097 0.00000000000000 -12.49999999999999
v 93.96926207859085 0.00000000000000 -34.20201433256686
v 70.47694655894313 0.00000000000000 -25.65151074942515
v 46.98463103929542 0.00000000000000 -17.10100716628343
v 23.49231551964771 0.00000000000000 -8.55050358314172
v 98.48077530122080 0.00000000000000 -17.36481776669304
v 73.86058147591560 0.00000000000000 -13.02361332501978
v 49.24038765061040 0.00000000000000 -8.68240888334652
v 24.62019382530520 0.00000000000000 -4.34120444167326
# 145 vertices

vn 0.00000000000000 1.00000000000000 0.00000000000000
vn 0.00000000000000 0.00000000000000 0.00000000000000
# 2 normals

vt 1.00000000000000 -0.50000000000000 0.00000000000000
vt 0.87500000000000 -0.50000000000000 0.00000000000000
vt 0.86930292844772 -0.43488192558289 0.00000000000000
vt 0.99240386486053 -0.41317588090897 0.00000000000000
vt 0.75000000000000 -0.50000000000000 0.00000000000000
vt 0.74620193243027 -0.45658797025681 0.00000000000000
vt 0.62500000000000 -0.50000000000000 0.00000000000000
vt 0.62310099601746 -0.47829395532608 0.00000000000000
vt 0.50000000000000 -0.50000000000000 0.00000000000000
vt 0.85238474607468 -0.37174242734909 0.00000000000000
vt 0.96984630823135 -0.32898992300034 0.00000000000000
vt 0.73492318391800 -0.41449493169785 0.00000000000000
vt 0.61746156215668 -0.45724749565125 0.00000000000000
vt 0.82475954294205 -0.31250000000000 0.00000000000000
vt 0.93301272392273 -0.25000000000000 0.00000000000000
vt 0.71650636196136 -0.37500000000000 0.00000000000000
vt 0.60825318098068 -0.43750000000000 0.00000000000000
vt 0.78726667165756 -0.25895464420319 0.00000000000000
vt 0.88302224874496 -0.17860618233681 0.00000000000000
vt 0.69151109457016 -0.33930307626724 0.00000000000000
vt 0.59575557708740 -0.41965150833130 0.00000000000000
vt 0.74104535579681 -0.21273332834244 0.00000000000000
vt 0.82139378786087 -0.11697778105736 0.00000000000000
vt 0.66069692373276 -0.30848884582520 0.00000000000000
vt 0.58034843206406 -0.40424442291260 0.00000000000000
vt 0.68750000000000 -0.17524045705795 0.00000000000000
vt 0.75000000000000 -0.06698729097843 0.00000000000000
vt 0.62500000000000 -0.28349363803864 0.00000000000000
vt 0.56250000000000 -0.39174681901932 0.00000000000000
vt 0.62825757265091 -0.14761525392532 0.00000000000000
vt 0.67101007699966 -0.03015368804336 0.00000000000000
vt 0.58550500869751 -0.26507681608200 0.00000000000000
vt 0.54275250434875 -0.38253837823868 0.00000000000000
vt 0.56511807441711 -0.13069707155228 0.00000000000000
vt 0.58682405948639 -0.00759612303227 0.00000000000000
vt 0.54341202974319 -0.25379806756973 0.00000000000000
vt 0.52170604467392 -0.37689900398254 0.00000000000000
vt 0.50000000000000 -0.12500000000000 0.00000000000000
vt 0.50000000000000 -0.00000000000000 0.00000000000000
vt 0.50000000000000 -0.25000000000000 0.00000000000000
vt 0.50000000000000 -0.37500000000000 0.00000000000000
vt 0.43488192558289 -0.13069707155228 0.00000000000000
vt 0.41317591071129 -0.00759612303227 0.00000000000000
vt 0.45658797025681 -0.25379806756973 0.00000000000000
vt 0.47829398512840 -0.37689900398254 0.00000000000000
vt 0.37174245715141 -0.14761525392532 0.00000000000000
vt 0.32898992300034 -0.03015368804336 0.00000000000000
vt 0.41449496150017 -0.26507681608200 0.00000000000000
vt 0.45724749565125 -0.38253837823868 0.00000000000000
vt 0.31250000000000 -0.17524045705795 0.00000000000000
vt 0.25000000000000 -0.06698729097843 0.00000000000000
vt 0.37500000000000 -0.28349363803864 0.00000000000000
vt 0.43750000000000 -0.39174681901932 0.00000000000000
vt 0.25895464420319 -0.21273332834244 0.00000000000000
vt 0.17860619723797 -0.11697778105736 0.00000000000000
vt 0.33930310606956 -0.30848884582520 0.00000000000000
vt 0.41965153813362 -0.40424442291260 0.00000000000000
vt 0.21273332834244 -0.25895464420319 0.00000000000000
vt 0.11697778105736 -0.17860618233681 0.00000000000000
vt 0.30848887562752 -0.33930307626724 0.00000000000000
vt 0.40424445271492 -0.41965150833130 0.00000000000000
vt 0.17524047195911 -0.31250000000000 0.00000000000000
vt 0.06698729842901 -0.25000000000000 0.00000000000000
vt 0.28349363803864 -0.37500000000000 0.00000000000000
vt 0.39174681901932 -0.43750000000000 0.00000000000000
vt 0.14761526882648 -0.37174242734909 0.00000000000000
vt 0.03015368990600 -0.32898992300034 0.00000000000000
vt 0.26507684588432 -0.41449493169785 0.00000000000000
vt 0.38253840804100 -0.45724749565125 0.00000000000000
vt 0.13069708645344 -0.43488192558289 0.00000000000000
vt 0.00759612349793 -0.41317588090897 0.00000000000000
vt 0.25379806756973 -0.45658797025681 0.00000000000000
vt 0.37689903378487 -0.47829395532608 0.00000000000000
vt 0.12500000000000 -0.50000000000000 0.00000000000000
vt 0.00000000000000 -0.50000000000000 0.00000000000000
vt 0.25000000000000 -0.50000000000000 0.00000000000000
vt 0.37500000000000 -0.50000000000000 0.00000000000000
vt 0.13069708645344 -0.56511807441711 0.00000000000000
vt 0.00759612349793 -0.58682405948639 0.00000000000000
vt 0.25379806756973 -0.54341197013855 0.00000000000000
vt 0.37689903378487 -0.52170598506927 0.00000000000000
vt 0.14761526882648 -0.62825751304626 0.00000000000000
vt 0.03015368990600 -0.67101001739502 0.00000000000000
vt 0.26507684588432 -0.58550500869751 0.00000000000000
vt 0.38253840804100 -0.54275250434875 0.00000000000000
vt 0.17524047195911 -0.68750000000000 0.00000000000000
vt 0.06698729842901 -0.75000000000000 0.00000000000000
vt 0.28349363803864 -0.62500000000000 0.00000000000000
vt 0.39174681901932 -0.56250000000000 0.00000000000000
vt 0.21273332834244 -0.74104535579681 0.00000000000000
vt 0.11697778105736 -0.82139372825623 0.00000000000000
vt 0.30848887562752 -0.66069686412811 0.00000000000000
vt 0.40424445271492 -0.58034837245941 0.00000000000000
vt 0.25895464420319 -0.78726661205292 0.00000000000000
vt 0.17860619723797 -0.88302218914032 0.00000000000000
vt 0.33930310606956 -0.69151103496552 0.00000000000000
vt 0.41965153813362 -0.59575557708740 0.00000000000000
vt 0.31250000000000 -0.82475948333740 0.00000000000000
vt 0.25000000000000 -0.93301272392273 0.00000000000000
vt 0.37500000000000 -0.71650636196136 0.00000000000000
vt 0.43750000000000 -0.60825312137604 0.00000000000000
vt 0.37174245715141 -0.85238468647003 0.00000000000000
vt 0.32898992300034 -0.96984624862671 0.00000000000000
vt 0.41449496150017 -0.73492312431335 0.00000000000000
vt 0.45724749565125 -0.61746156215668 0.00000000000000
vt 0.43488192558289 -0.86930286884308 0.00000000000000
vt 0.41317591071129 -0.99240386486053 0.00000000000000
vt 0.45658797025681 -0.74620187282562 0.00000000000000
vt 0.47829398512840 -0.62310099601746 0.00000000000000
vt 0.50000000000000 -0.87500000000000 0.00000000000000
vt 0.50000000000000 -1.00000000000000 0.00000000000000
vt 0.50000000000000 -0.75000000000000 0.00000000000000
vt 0.50000000000000 -0.62500000000000 0.00000000000000
vt 0.56511807441711 -0.86930286884308 0.00000000000000
vt 0.58682405948639 -0.99240386486053 0.00000000000000
vt 0.54341202974319 -0.74620187282562 0.00000000000000
vt 0.52170604467392 -0.62310099601746 0.00000000000000
vt 0.62825757265091 -0.85238468647003 0.00000000000000
vt 0.67101007699966 -0.96984624862671 0.00000000000000
vt 0.58550500869751 -0.73492312431335 0.00000000000000
vt 0.54275250434875 -0.61746156215668 0.00000000000000
vt 0.68750000000000 -0.82475948333740 0.00000000000000
vt 0.75000000000000 -0.93301272392273 0.00000000000000
vt 0.62500000000000 -0.71650636196136 0.00000000000000
vt 0.56250000000000 -0.60825312137604 0.00000000000000
vt 0.74104535579681 -0.78726661205292 0.00000000000000
vt 0.82139378786087 -0.88302218914032 0.00000000000000
vt 0.66069692373276 -0.69151103496552 0.00000000000000
vt 0.58034843206406 -0.59575557708740 0.00000000000000
vt 0.78726667165756 -0.74104535579681 0.00000000000000
vt 0.88302224874496 -0.82139372825623 0.00000000000000
vt 0.69151109457016 -0.66069686412811 0.00000000000000
vt 0.59575557708740 -0.58034837245941 0.00000000000000
vt 0.82475954294205 -0.68750000000000 0.00000000000000
vt 0.93301272392273 -0.75000000000000 0.00000000000000
vt 0.71650636196136 -0.62500000000000 0.00000000000000
vt 0.60825318098068 -0.56250000000000 0.00000000000000
vt 0.85238474607468 -0.62825751304626 0.00000000000000
vt 0.96984630823135 -0.67101001739502 0.00000000000000
vt 0.73492318391800 -0.58550500869751 0.00000000000000
vt 0.61746156215668 -0.54275250434875 0.00000000000000
vt 0.86930292844772 -0.56511807441711 0.00000000000000
vt 0.99240386486053 -0.58682405948639 0.00000000000000
vt 0.74620193243027 -0.54341197013855 0.00000000000000
vt 0.62310099601746 -0.52170598506927 0.00000000000000
# 145 texture coordinates

o Disc
usemtl default
f 2/4/1 3/3/1 7/2/1 6/1/1
f 3/3/1 4/6/1 8/5/1 7/2/1
f 4/6/1 5/8/1 9/7/1 8/5/1
f 5/8/1 1/8/1 9/9/1
f 6/11/1 7/10/1 11/3/1 10/4/1
f 7/10/1 8/12/1 12/6/1 11/3/1
f 8/12/1 9/13/1 13/8/1 12/6/1
f 9/13/1 1/13/1 13/9/1
f 10/15/1 11/14/1 15/10/1 14/11/1
f 11/14/1 12/16/1 16/12/1 15/10/1
f 12/16/1 13/17/1 17/13/1 16/12/1
f 13/17/1 1/17/1 17/9/1
f 14/19/1 15/18/1 19/14/1 18/15/1
f 15/18/1 16/20/1 20/16/1 19/14/1
f 16/20/1 17/21/1 21/17/1 20/16/1
f 17/21/1 1/21/1 21/9/1
f 18/23/1 19/22/1 23/18/1 22/19/1
f 19/22/1 20/24/1 24/20/1 23/18/1
f 20/24/1 21/25/1 25/21/1 24/20/1
f 21/25/1 1/25/1 25/9/1
f 22/27/1 23/26/1 27/22/1 26/23/1
f 23/26/1 24/28/1 28/24/1 27/22/1
f 24/28/1 25/29/1 29/25/1 28/24/1
f 25/29/1 1/29/1 29/9/1
f 26/31/1 27/30/1 31/26/1 30/27/1
f 27/30/1 28/32/1 32/28/1 31/26/1
f 28/32/1 29/33/1 33/29/1 32/28/1
f 29/33/1 1/33/1 33/9/1
f 30/35/1 31/34/1 35/30/1 34/31/1
f 31/34/1 32/36/1 36/32/1 35/30/1
f 32/36/1 33/37/1 37/33/1 36/32/1
f 33/37/1 1/37/1 37/9/1
f 34/39/1 35/38/1 39/34/1 38/35/1
f 35/38/1 36/40/1 40/36/1 39/34/1
f 36/40/1 37/41/1 41/37/1 40/36/1
f 37/41/1 1/41/1 41/9/1
f 38/43/1 39/42/1 43/38/1 42/39/1
f 39/42/1 40/44/1 44/40/1 43/38/1
f 40/44/1 41/45/1 45/41/1 44/40/1
f 41/45/1 1/45/1 45/9/1
f 42/47/1 43/46/1 47/42/1 46/43/1
f 43/46/1 44/48/1 48/44/1 47/42/1
f 44/48/1 45/49/1 49/45/1 48/44/1
f 45/49/1 1/49/1 49/9/1
f 46/51/1 47/50/1 51/46/1 50/47/1
f 47/50/1 48/52/1 52/48/1 51/46/1
f 48/52/1 49/53/1 53/49/1 52/48/1
f 49/53/1 1/53/1 53/9/1
f 50/55/1 51/54/1 55/50/1 54/51/1
f 51/54/1 52/56/1 56/52/1 55/50/1
f 52/56/1 53/57/1 57/53/1 56/52/1
f 53/57/1 1/57/1 57/9/1
f 54/59/1 55/58/1 59/54/1 58/55/1
f 55/58/1 56/60/1 60/56/1 59/54/1
f 56/60/1 57/61/1 61/57/1 60/56/1
f 57/61/1 1/61/1 61/9/1
f 58/63/1 59/62/1 63/58/1 62/59/1
f 59/62/1 60/64/1 64/60/1 63/58/1
f 60/64/1 61/65/1 65/61/1 64/60/1
f 61/65/1 1/65/1 65/9/1
f 62/67/1 63/66/1 67/62/1 66/63/1
f 63/66/1 64/68/1 68/64/1 67/62/1
f 64/68/1 65/69/1 69/65/1 68/64/1
f 65/69/1 1/69/1 69/9/1
f 66/71/1 67/70/1 71/66/1 70/67/1
f 67/70/1 68/72/1 72/68/1 71/66/1
f 68/72/1 69/73/1 73/69/1 72/68/1
f 69/73/1 1/73/1 73/9/1
f 70/75/1 71/74/1 75/70/1 74/71/1
f 71/74/1 72/76/1 76/72/1 75/70/1
f 72/76/1 73/77/1 77/73/1 76/72/1
f 73/77/1 1/77/1 77/9/1
f 74/79/1 75/78/1 79/74/1 78/75/1
f 75/78/1 76/80/1 80/76/1 79/74/1
f 76/80/1 77/81/1 81/77/1 80/76/1
f 77/81/1 1/81/1 81/9/1
f 78/83/1 79/82/1 83/78/1 82/79/1
f 79/82/1 80/84/1 84/80/1 83/78/1
f 80/84/1 81/85/1 85/81/1 84/80/1
f 81/85/1 1/85/1 85/9/1
f 82/87/1 83/86/1 87/82/1 86/83/1
f 83/86/1 84/88/1 88/84/1 87/82/1
f 84/88/1 85/89/1 89/85/1 88/84/1
f 85/89/1 1/89/1 89/9/1
f 86/91/1 87/90/1 91/86/1 90/87/1
f 87/90/1 88/92/1 92/88/1 91/86/1
f 88/92/1 89/93/1 93/89/1 92/88/1
f 89/93/1 1/93/1 93/9/1
f 90/95/1 91/94/1 95/90/1 94/91/1
f 91/94/1 92/96/1 96/92/1 95/90/1
f 92/96/1 93/97/1 97/93/1 96/92/1
f 93/97/1 1/97/1 97/9/1
f 94/99/1 95/98/1 99/94/1 98/95/1
f 95/98/1 96/100/1 100/96/1 99/94/1
f 96/100/1 97/101/1 101/97/1 100/96/1
f 97/101/1 1/101/1 101/9/1
f 98/103/1 99/102/1 103/98/1 102/99/1
f 99/102/1 100/104/1 104/100/1 103/98/1
f 100/104/1 101/105/1 105/101/1 104/100/1
f 101/105/1 1/105/1 105/9/1
f 102/107/1 103/106/1 107/102/1 106/103/1
f 103/106/1 104/108/1 108/104/1 107/102/1
f 104/108/1 105/109/1 109/105/1 108/104/1
f 105/109/1 1/109/1 109/9/1
f 106/111/1 107/110/1 111/106/1 110/107/1
f 107/110/1 108/112/1 112/108/1 111/106/1
f 108/112/1 109/113/1 113/109/1 112/108/1
f 109/113/1 1/113/1 113/9/1
f 110/115/1 111/114/1 115/110/1 114/111/1
f 111/114/1 112/116/1 116/112/1 115/110/1
f 112/116/1 113/117/1 117/113/1 116/112/1
f 113/117/1 1/117/1 117/9/1
f 114/119/1 115/118/1 119/114/1 118/115/1
f 115/118/1 116/120/1 120/116/1 119/114/1
f 116/120/1 117/121/1 121/117/1 120/116/1
f 117/121/1 1/121/1 121/9/1
f 118/123/1 119/122/1 123/118/1 122/119/1
f 119/122/1 120/124/1 124/120/1 123/118/1
f 120/124/1 121/125/1 125/121/1 124/120/1
f 121/125/1 1/125/1 125/9/1
f 122/127/1 123/126/1 127/122/1 126/123/1
f 123/126/1 124/128/1 128/124/1 127/122/1
f 124/128/1 125/129/1 129/125/1 128/124/1
f 125/129/1 1/129/1 129/9/1
f 126/131/1 127/130/1 131/126/1 130/127/1
f 127/130/1 128/132/1 132/128/1 131/126/1
f 128/132/1 129/133/1 133/129/1 132/128/1
f 129/133/1 1/133/1 133/9/1
f 130/135/1 131/134/1 135/130/1 134/131/1
f 131/134/1 132/136/1 136/132/1 135/130/1
f 132/136/1 133/137/1 137/133/1 136/132/1
f 133/137/1 1/137/1 137/9/1
f 134/139/1 135/138/1 139/134/1 138/135/1
f 135/138/1 136/140/1 140/136/1 139/134/1
f 136/140/1 137/141/1 141/137/1 140/136/1
f 137/141/1 1/141/1 141/9/1
f 138/143/1 139/142/1 143/138/1 142/139/1
f 139/142/1 140/144/1 144/140/1 143/138/1
f 140/144/1 141/145/1 145/141/1 144/140/1
f 141/145/1 1/145/1 145/9/1
f 142/1/1 143/2/1 3/142/1 2/143/1
f 143/2/1 144/5/1 4/144/1 3/142/1
f 144/5/1 145/7/1 5/145/1 4/144/1
f 145/7/1 1/7/1 5/9/1

