# WaveFront *.obj file (generated by CINEMA 4D)

mtllib ./triangle.mtl

v -50.00000000000000 0.00000000000000 -50.00000000000000
v 0.00000000000000 0.00000000000000 50.00000000000000
v 50.00000000000000 0.00000000000000 -50.00000000000000
# 3 vertices

vn 0.00000000000000 1.00000000000000 0.00000000000000
vn 0.00000000000000 0.00000000000000 0.00000000000000
# 2 normals

vt 0.00000000000000 -1.00000000000000 0.00000000000000
vt 0.50000000000000 -0.00000000000000 0.00000000000000
vt 1.00000000000000 -1.00000000000000 0.00000000000000
vt 0.00000000000000 -0.00000000000000 0.00000000000000
# 4 texture coordinates

o Polygon
usemtl default
f 1/4/1 2/3/1 3/2/1

